<svg width="20" height="20" viewBox="0 0 20 20" fill="none" xmlns="http://www.w3.org/2000/svg">
<path d="M14.5 3C15.163 3 15.7989 3.26339 16.2678 3.73223C16.7366 4.20107 17 4.83696 17 5.5V14.5C17 15.163 16.7366 15.7989 16.2678 16.2678C15.7989 16.7366 15.163 17 14.5 17H5.5C4.83696 17 4.20107 16.7366 3.73223 16.2678C3.26339 15.7989 3 15.163 3 14.5V5.5C3 4.83696 3.26339 4.20107 3.73223 3.73223C4.20107 3.26339 4.83696 3 5.5 3H14.5ZM14.5 4H5.5C4.67 4 4 4.67 4 5.5V14.5C4 15.33 4.67 16 5.5 16H14.5C15.33 16 16 15.33 16 14.5V5.5C16 4.67 15.33 4 14.5 4ZM6.5 6C6.61839 5.99807 6.73363 6.03822 6.82519 6.1133C6.91676 6.18838 6.9787 6.29352 7 6.41V13.5C7.00591 13.5657 6.99883 13.6318 6.97916 13.6948C6.95949 13.7577 6.92762 13.8161 6.88537 13.8667C6.84312 13.9173 6.79132 13.9591 6.73292 13.9897C6.67452 14.0203 6.61066 14.0391 6.545 14.045C6.47934 14.0509 6.41316 14.0438 6.35023 14.0242C6.28731 14.0045 6.22887 13.9726 6.17827 13.9304C6.12766 13.8881 6.08587 13.8363 6.05528 13.7779C6.02469 13.7195 6.00591 13.6557 6 13.59V6.5C6 6.22 6.22 6 6.5 6Z" fill="#5F5E5E"/>
</svg>
