<svg width="16" height="16" viewBox="0 0 16 16" fill="none" xmlns="http://www.w3.org/2000/svg">
<circle cx="8" cy="8" r="8" fill="#2B67D0"/>
<g clip-path="url(#clip0_324_2475)">
<path d="M8 0C10.1217 0 12.1566 0.842855 13.6569 2.34315C15.1571 3.84344 16 5.87827 16 8C16 10.1217 15.1571 12.1566 13.6569 13.6569C12.1566 15.1571 10.1217 16 8 16C5.87827 16 3.84344 15.1571 2.34315 13.6569C0.842855 12.1566 0 10.1217 0 8C0 5.87827 0.842855 3.84344 2.34315 2.34315C3.84344 0.842855 5.87827 0 8 0ZM8 1C7.08075 1 6.1705 1.18106 5.32122 1.53284C4.47194 1.88463 3.70026 2.40024 3.05025 3.05025C2.40024 3.70026 1.88463 4.47194 1.53284 5.32122C1.18106 6.1705 1 7.08075 1 8C1 8.91925 1.18106 9.8295 1.53284 10.6788C1.88463 11.5281 2.40024 12.2997 3.05025 12.9497C3.70026 13.5998 4.47194 14.1154 5.32122 14.4672C6.1705 14.8189 7.08075 15 8 15C9.85652 15 11.637 14.2625 12.9497 12.9497C14.2625 11.637 15 9.85652 15 8C15 6.14348 14.2625 4.36301 12.9497 3.05025C11.637 1.7375 9.85652 1 8 1ZM11.36 5.65C11.53 5.82 11.56 6.09 11.42 6.28L11.36 6.35L7.36 10.35C7.27865 10.4352 7.16985 10.4889 7.05277 10.5017C6.93568 10.5145 6.81784 10.4856 6.72 10.42L6.65 10.36L4.65 8.36C4.56255 8.27228 4.51076 8.15523 4.50468 8.03151C4.49861 7.90779 4.53867 7.78622 4.6171 7.69036C4.69554 7.59449 4.80677 7.53115 4.92924 7.51261C5.05171 7.49407 5.1767 7.52165 5.28 7.59L5.35 7.65L7 9.3L10.65 5.65C10.85 5.45 11.16 5.45 11.35 5.65H11.36Z" fill="white"/>
</g>
<defs>
<clipPath id="clip0_324_2475">
<rect width="10" height="10" fill="white" transform="translate(3 3)"/>
</clipPath>
</defs>
</svg>
