<svg width="20" height="20" viewBox="0 0 20 20" fill="none" xmlns="http://www.w3.org/2000/svg">
<path d="M10 1.99999C13.31 1.99999 16 4.59999 16 7.79999C16 9.47999 15.25 11.02 13.8 12.4C13.7365 12.4554 13.6854 12.5235 13.65 12.6L13.63 12.69L12.69 16.61C12.5934 16.9871 12.3797 17.3238 12.0796 17.5718C11.7795 17.8198 11.4086 17.9662 11.02 17.99L10.87 18H9.13C8.31 18 7.59 17.48 7.35 16.74L7.31 16.6L6.38 12.69C6.35391 12.5755 6.2948 12.4712 6.21 12.39C5.57174 11.8475 5.04768 11.1836 4.66829 10.4369C4.28889 9.69009 4.06173 8.87534 4 8.03999V7.79999V7.59999C4.08009 6.07122 4.75026 4.63318 5.86941 3.58864C6.98855 2.5441 8.46935 1.97458 10 1.99999ZM12.04 15H7.96L8.27 16.33L8.3 16.43C8.4 16.73 8.68 16.95 9.01 16.99L9.13 17H10.94C11.1023 16.9916 11.2589 16.9373 11.3917 16.8435C11.5244 16.7497 11.6278 16.6202 11.69 16.47L11.72 16.37L12.04 15ZM10 2.99999C8.76859 2.97836 7.57384 3.41936 6.6518 4.23586C5.72975 5.05237 5.14748 6.185 5.02 7.40999L5 7.62999V7.99999C5.06 9.29999 5.68 10.52 6.9 11.67C7.08 11.84 7.22 12.07 7.3 12.31L7.35 12.46L7.72 14H12.29L12.67 12.39L12.72 12.23C12.81 12.02 12.94 11.83 13.11 11.67C14.38 10.47 15 9.17999 15 7.79999C14.987 7.15647 14.8473 6.52182 14.589 5.93229C14.3307 5.34276 13.9587 4.8099 13.4944 4.36415C13.0301 3.9184 12.4825 3.5685 11.8829 3.33444C11.2833 3.10037 10.6435 2.98672 10 2.99999Z" fill="#5F5E5E"/>
</svg>
