<svg width="20" height="20" viewBox="0 0 20 20" fill="none" xmlns="http://www.w3.org/2000/svg">
<path d="M12.4999 15C12.6325 14.9881 12.7644 15.0293 12.8666 15.1146C12.9688 15.2 13.033 15.3224 13.0449 15.455C13.0568 15.5876 13.0156 15.7195 12.9303 15.8217C12.8449 15.9239 12.7225 15.9881 12.5899 16H2.4999C2.36729 16.0119 2.23538 15.9707 2.13317 15.8854C2.03096 15.8001 1.96684 15.6776 1.9549 15.545C1.94297 15.4124 1.9842 15.2805 2.06953 15.1783C2.15486 15.0761 2.27729 15.0119 2.4099 15H12.4999ZM17.4999 9.00001C17.6325 8.98807 17.7644 9.0293 17.8666 9.11463C17.9688 9.19996 18.033 9.3224 18.0449 9.45501C18.0568 9.58761 18.0156 9.71953 17.9303 9.82174C17.8449 9.92395 17.7225 9.98807 17.5899 10H2.4999C2.38313 9.98984 2.27364 9.93897 2.19056 9.85628C2.10748 9.77359 2.05609 9.66434 2.04537 9.54762C2.03465 9.43089 2.06528 9.31411 2.13191 9.21767C2.19854 9.12124 2.29693 9.05127 2.4099 9.02001L2.5099 9.01001H17.4999V9.00001ZM13.4999 3.00001C13.5656 2.9941 13.6317 3.00118 13.6947 3.02085C13.7576 3.04051 13.816 3.07238 13.8666 3.11463C13.9172 3.15688 13.959 3.20869 13.9896 3.26709C14.0202 3.32549 14.039 3.38935 14.0449 3.45501C14.0508 3.52067 14.0437 3.58685 14.0241 3.64977C14.0044 3.7127 13.9725 3.77113 13.9303 3.82174C13.888 3.87235 13.8362 3.91414 13.7778 3.94473C13.7194 3.97531 13.6556 3.9941 13.5899 4.00001H2.4999C2.36729 4.01194 2.23538 3.97071 2.13317 3.88538C2.03096 3.80005 1.96684 3.67762 1.9549 3.54501C1.94297 3.4124 1.9842 3.28048 2.06953 3.17827C2.15486 3.07607 2.27729 3.01194 2.4099 3.00001H13.4999Z" fill="#5F5E5E"/>
</svg>
