<svg width="20" height="20" viewBox="0 0 20 20" fill="none" xmlns="http://www.w3.org/2000/svg">
<path d="M7.5 11C8.33 11 9 11.67 9 12.5V16.5C9 17.33 8.33 18 7.5 18H3.5C3.10218 18 2.72064 17.842 2.43934 17.5607C2.15804 17.2794 2 16.8978 2 16.5V12.5C2 11.67 2.67 11 3.5 11H7.5ZM16.5 11C17.33 11 18 11.67 18 12.5V16.5C18 17.33 17.33 18 16.5 18H12.5C12.1022 18 11.7206 17.842 11.4393 17.5607C11.158 17.2794 11 16.8978 11 16.5V12.5C11 11.67 11.67 11 12.5 11H16.5ZM7.5 2C8.33 2 9 2.67 9 3.5V7.5C9 8.33 8.33 9 7.5 9H3.5C3.10218 9 2.72064 8.84196 2.43934 8.56066C2.15804 8.27936 2 7.89782 2 7.5V3.5C2 2.67 2.67 2 3.5 2H7.5ZM16.5 2C17.33 2 18 2.67 18 3.5V7.5C18 8.33 17.33 9 16.5 9H12.5C12.1022 9 11.7206 8.84196 11.4393 8.56066C11.158 8.27936 11 7.89782 11 7.5V3.5C11 2.67 11.67 2 12.5 2H16.5Z" fill="#5F5E5E"/>
</svg>
