<svg width="20" height="20" viewBox="0 0 20 20" fill="none" xmlns="http://www.w3.org/2000/svg">
<path d="M5.65367 17.3164C5.19548 17.575 4.65001 17.1606 4.77628 16.6499L5.81355 12.4541C5.86937 12.2284 5.78969 11.9907 5.60908 11.8442L2.16227 9.0481C1.742 8.70717 1.9523 8.02792 2.49169 7.98411L7.1274 7.60759C7.34496 7.58991 7.53577 7.45548 7.62563 7.25655L9.4532 3.21055C9.6658 2.73987 10.3342 2.73987 10.5468 3.21055L12.3744 7.25655C12.4642 7.45548 12.655 7.58991 12.8726 7.60759L17.5083 7.98411C18.0477 8.02792 18.258 8.70717 17.8377 9.0481L14.3909 11.8442C14.2103 11.9907 14.1306 12.2284 14.1864 12.4541L15.2237 16.6499C15.35 17.1606 14.8045 17.575 14.3463 17.3164L10.2949 15.0296C10.1119 14.9263 9.88812 14.9263 9.70508 15.0296L5.65367 17.3164Z" fill="#2B67D0"/>
</svg>
