<svg width="20" height="20" viewBox="0 0 20 20" fill="none" xmlns="http://www.w3.org/2000/svg">
<path d="M9.09998 2.9C9.18187 2.73093 9.30972 2.58834 9.46889 2.48858C9.62807 2.38881 9.81212 2.33589 9.99998 2.33589C10.1878 2.33589 10.3719 2.38881 10.5311 2.48858C10.6902 2.58834 10.8181 2.73093 10.9 2.9L12.83 6.81L17.14 7.44C17.324 7.46674 17.4968 7.54422 17.6392 7.66376C17.7816 7.7833 17.8878 7.94016 17.946 8.11673C18.0041 8.2933 18.0119 8.48259 17.9685 8.66335C17.925 8.8441 17.832 9.00916 17.7 9.14L14.58 12.19L15.31 16.49C15.3405 16.6735 15.3192 16.8618 15.2485 17.0338C15.1779 17.2059 15.0606 17.3548 14.91 17.4639C14.7594 17.5729 14.5813 17.6378 14.3958 17.6513C14.2103 17.6648 14.0248 17.6262 13.86 17.54L9.99998 15.51L6.13998 17.54C5.97519 17.6262 5.78962 17.6648 5.60413 17.6513C5.41864 17.6378 5.24058 17.5729 5.08994 17.4639C4.93931 17.3548 4.82208 17.2059 4.75143 17.0338C4.68078 16.8618 4.6595 16.6735 4.68998 16.49L5.42998 12.19L2.29998 9.14C2.16792 9.00916 2.07494 8.8441 2.03148 8.66335C1.98803 8.48259 1.99583 8.2933 2.05399 8.11673C2.11215 7.94016 2.21839 7.7833 2.36076 7.66376C2.50313 7.54422 2.67601 7.46674 2.85998 7.44L7.16998 6.81L9.09998 2.9ZM9.99998 3.34L8.06998 7.25C7.99887 7.39557 7.89346 7.52169 7.76281 7.6175C7.63216 7.71331 7.4802 7.77594 7.31998 7.8L2.99998 8.43L6.11998 11.47C6.23904 11.5824 6.32866 11.7224 6.38097 11.8776C6.43327 12.0328 6.44667 12.1984 6.41998 12.36L5.66998 16.66L9.53998 14.63C9.6834 14.5547 9.84298 14.5153 10.005 14.5153C10.167 14.5153 10.3266 14.5547 10.47 14.63L14.33 16.66L13.59 12.36C13.562 12.1993 13.5739 12.0341 13.6244 11.879C13.675 11.7238 13.7627 11.5834 13.88 11.47L17 8.43L12.68 7.8C12.5198 7.77594 12.3678 7.71331 12.2371 7.6175C12.1065 7.52169 12.0011 7.39557 11.93 7.25L9.99998 3.35V3.34Z" fill="#2B67D0"/>
</svg>
