<svg width="18" height="14" viewBox="0 0 18 14" fill="none" xmlns="http://www.w3.org/2000/svg">
<path d="M0.9 4.35003L3.55 1.71003V13.5C3.55 13.6326 3.60268 13.7598 3.69645 13.8536C3.79021 13.9474 3.91739 14 4.05 14C4.18261 14 4.30979 13.9474 4.40355 13.8536C4.49732 13.7598 4.55 13.6326 4.55 13.5V1.70003L7.2 4.35003C7.29629 4.42225 7.41539 4.45731 7.53544 4.44878C7.6555 4.44024 7.76845 4.38869 7.85355 4.30359C7.93866 4.21848 7.99021 4.10553 7.99874 3.98548C8.00727 3.86542 7.97222 3.74632 7.9 3.65003L4.41 0.150034C4.3631 0.102188 4.30707 0.0642543 4.24523 0.0384866C4.18339 0.0127188 4.117 -0.000357819 4.05 3.34678e-05C3.9757 -0.000826154 3.90215 0.0148837 3.83469 0.0460204C3.76722 0.0771571 3.70755 0.122938 3.66 0.180034L0.2 3.65003C0.142691 3.69302 0.0952873 3.74781 0.0609984 3.81071C0.0267094 3.8736 0.00633616 3.94313 0.00125795 4.01459C-0.00382025 4.08604 0.00651516 4.15776 0.0315645 4.22487C0.0566139 4.29198 0.0957923 4.35293 0.146447 4.40359C0.197101 4.45424 0.258049 4.49342 0.325162 4.51847C0.392276 4.54352 0.463989 4.55385 0.535445 4.54878C0.6069 4.5437 0.676431 4.52332 0.739327 4.48904C0.802224 4.45475 0.857018 4.40734 0.9 4.35003ZM16.2 9.65003L13.55 12.29V0.500033C13.55 0.367425 13.4973 0.240248 13.4036 0.14648C13.3098 0.052712 13.1826 3.34678e-05 13.05 3.34678e-05C12.9174 3.34678e-05 12.7902 0.052712 12.6964 0.14648C12.6027 0.240248 12.55 0.367425 12.55 0.500033V12.3L9.9 9.65003C9.80371 9.57782 9.68461 9.54276 9.56456 9.55129C9.4445 9.55982 9.33155 9.61137 9.24645 9.69648C9.16134 9.78159 9.10979 9.89453 9.10126 10.0146C9.09273 10.1346 9.12779 10.2537 9.2 10.35L12.69 13.85C12.7369 13.8979 12.7929 13.9358 12.8548 13.9616C12.9166 13.9873 12.983 14.0004 13.05 14C13.1243 14.0009 13.1979 13.9852 13.2653 13.954C13.3328 13.9229 13.3925 13.8771 13.44 13.82L16.9 10.35C16.9573 10.3071 17.0047 10.2523 17.039 10.1894C17.0733 10.1265 17.0937 10.0569 17.0987 9.98548C17.1038 9.91402 17.0935 9.84231 17.0684 9.7752C17.0434 9.70808 17.0042 9.64713 16.9536 9.59648C16.9029 9.54583 16.842 9.50665 16.7748 9.4816C16.7077 9.45655 16.636 9.44621 16.5646 9.45129C16.4931 9.45637 16.4236 9.47674 16.3607 9.51103C16.2978 9.54532 16.243 9.59272 16.2 9.65003Z" fill="#5F5E5E"/>
</svg>
